<svg width="42" height="7" viewBox="0 0 42 7" fill="none" xmlns="http://www.w3.org/2000/svg">
<path d="M2.13157 0.532548L2.24557 0.661808C1.78437 0.973754 1.44062 1.30638 1.21606 1.66141C0.925867 2.11813 0.780769 2.61449 0.780769 3.1522C0.780769 3.80367 0.994962 4.40516 1.42508 4.95666C1.6099 4.805 1.72218 4.67746 1.75846 4.57406C1.79473 4.47065 1.81373 4.188 1.81373 3.72439V1.6528L3.80193 0C4.26486 0.182686 4.62934 0.299881 4.89362 0.353309C5.15964 0.406736 5.47056 0.434311 5.82813 0.434311H5.93522L6.01123 0.60321L5.24601 1.33223C4.73298 1.27708 4.15258 1.08922 3.50655 0.766938L3.55319 6.05278L3.72938 6.05795C4.17331 6.05795 4.57752 5.98212 4.94372 5.83046C5.30992 5.67879 5.68821 5.43234 6.0786 5.09109L6.22024 5.22725C5.93177 5.62192 5.65021 5.93042 5.37383 6.1493C5.09745 6.36818 4.76407 6.54397 4.37369 6.67495C3.9833 6.80593 3.5981 6.87142 3.21462 6.87142C2.64632 6.87142 2.10911 6.73355 1.60645 6.45952C1.10379 6.18549 0.709947 5.79082 0.426659 5.27895C0.141644 4.76708 0 4.23971 0 3.69682C0 3.02811 0.200374 2.40767 0.60285 1.83548C0.91723 1.39083 1.4268 0.954796 2.13157 0.532548ZM3.29408 0.735916L2.75169 1.2047V3.31766C2.75169 3.57962 2.73787 3.75541 2.71023 3.84159C2.67914 3.95534 2.60832 4.0777 2.49604 4.20696C2.26976 4.46892 1.95365 4.76881 1.54599 5.1066C1.79473 5.38063 2.05902 5.5909 2.34403 5.73739C2.62732 5.88388 2.9607 5.98212 3.34072 6.03038L3.29408 0.735916Z" fill="black"/>
<path d="M6.62444 6.72494H6.79545C7.12192 6.72494 7.36375 6.64566 7.52267 6.48882C7.68159 6.33026 7.75932 6.08898 7.75932 5.76325C7.79214 5.58401 7.81287 5.41511 7.82151 5.2531C7.83014 5.09282 7.83187 4.85154 7.82669 4.53097C7.82151 4.18801 7.81114 3.80712 7.79387 3.39177C7.77659 2.97642 7.76105 2.70583 7.74723 2.58174C7.73168 2.39733 7.70404 2.25773 7.66432 2.16294C7.62459 2.06815 7.5624 1.98887 7.47776 1.92166C7.32575 1.78723 7.09774 1.72174 6.79372 1.72174H6.61235V1.58214H9.95653V1.72174H9.83907C9.51259 1.72174 9.27076 1.80102 9.11185 1.95785C8.95293 2.11641 8.8752 2.35769 8.8752 2.68343V4.10356H11.7288V2.68343C11.7288 2.35597 11.6511 2.11296 11.4939 1.95613C11.3367 1.79929 11.0949 1.72174 10.7649 1.72174H10.6544V1.58214H13.9675V1.72174H13.812C13.4873 1.72174 13.2472 1.80102 13.0865 1.95785C12.9276 2.11641 12.8481 2.35769 12.8481 2.68343V5.76152C12.8481 6.08553 12.9293 6.32509 13.0917 6.48537C13.2541 6.64566 13.4942 6.72321 13.8137 6.72321H13.9692V6.87143H10.6544V6.72321H10.7649C11.0914 6.72321 11.3332 6.64393 11.4922 6.4871C11.6511 6.32854 11.7288 6.08726 11.7288 5.76152V4.25867H8.8752V5.76152C8.8752 6.08553 8.95638 6.32509 9.11876 6.48537C9.28113 6.64566 9.52123 6.72321 9.83907 6.72321H9.95653V6.87143H6.62444V6.72494Z" fill="black"/>
<path d="M17.4637 1.47701H17.6036L19.7369 6.10449C19.806 6.24754 19.882 6.36645 19.9666 6.45952C20.0512 6.55259 20.1462 6.6198 20.2533 6.66289C20.3604 6.70425 20.4848 6.72493 20.6299 6.72493H20.7698V6.87315H17.6917V6.72493H18.0941C18.2945 6.72493 18.4396 6.69736 18.5329 6.64393C18.6244 6.58878 18.6711 6.50605 18.6711 6.39231C18.6711 6.32164 18.6521 6.23547 18.6158 6.13551C18.5795 6.03383 18.4983 5.85114 18.374 5.58573C18.3671 5.57022 18.355 5.54609 18.3394 5.5099C18.3239 5.4737 18.3083 5.44096 18.2893 5.40821L18.2012 5.21518H15.9574L15.7864 5.60986C15.7311 5.74429 15.7035 5.87872 15.7035 6.01487C15.7035 6.13034 15.7363 6.24581 15.8002 6.35956C15.8641 6.47331 15.9488 6.55948 16.0524 6.61636C16.1215 6.65599 16.1819 6.68357 16.2372 6.69736C16.2925 6.71115 16.3702 6.71976 16.4704 6.72493V6.87315H14.3112V6.72493C14.4684 6.7077 14.5928 6.68012 14.6843 6.64221C14.7759 6.60429 14.8795 6.54052 14.9935 6.45263C15.2613 6.24581 15.5238 5.85631 15.7795 5.2824L17.4637 1.47701ZM17.0612 2.71617L16.0213 5.07558H18.127L17.0612 2.71617Z" fill="black"/>
<path d="M21.2673 1.58386H23.3971L27.0833 5.3927V3.11257C27.0833 2.83509 27.0367 2.59208 26.9417 2.38355C26.8467 2.17501 26.7102 2.01645 26.5306 1.90787C26.4339 1.84755 26.3371 1.80446 26.2404 1.77861C26.1437 1.75276 26.0072 1.7338 25.8327 1.72174V1.58214H28.4601V1.72174H28.4065C28.0248 1.72174 27.7328 1.84238 27.5342 2.08539C27.3355 2.32839 27.2336 2.67998 27.2336 3.14187V6.92486H27.1075L22.53 2.2336V5.37719C22.53 5.68224 22.5663 5.92697 22.6406 6.10966C22.7131 6.29235 22.8323 6.43539 22.9981 6.5388C23.1329 6.6198 23.2952 6.67151 23.487 6.69391C23.5941 6.71115 23.7444 6.72494 23.943 6.73183V6.87143H21.1758V6.73183C21.459 6.71632 21.6905 6.66634 21.8684 6.58189C22.0464 6.49744 22.1776 6.37163 22.264 6.20445C22.3486 6.03728 22.3918 5.83046 22.3918 5.58401V2.59381C22.3918 2.4094 22.3504 2.25256 22.2692 2.12503C22.1863 1.99577 22.0671 1.89753 21.9099 1.82859C21.7527 1.75965 21.5627 1.72519 21.3399 1.72519H21.2708V1.58386H21.2673Z" fill="black"/>
<path d="M34.6043 5.01009H34.7373C34.6768 5.23414 34.6095 5.422 34.5369 5.57022C34.4626 5.71843 34.3625 5.87527 34.2329 6.03555C33.7199 6.66634 33.0324 6.98173 32.1722 6.98173C31.6315 6.98173 31.1254 6.85592 30.6573 6.60429C30.1891 6.35267 29.8178 6.01487 29.5414 5.58917C29.265 5.16348 29.1268 4.70504 29.1268 4.21213C29.1268 3.91914 29.1804 3.62788 29.2892 3.34006C29.398 3.05224 29.5569 2.78166 29.7659 2.53004C29.975 2.27841 30.2168 2.06298 30.4932 1.88374C30.9112 1.61143 31.3931 1.47528 31.939 1.47528C32.1203 1.47528 32.2931 1.49079 32.4572 1.52181C32.6195 1.55284 32.775 1.60454 32.9201 1.67348C33.0652 1.74242 33.2155 1.83376 33.3692 1.94751C33.542 2.06643 33.6681 2.12503 33.7492 2.12503C33.9289 2.12503 34.1534 1.93889 34.4246 1.5649H34.5576L34.6682 4.11045H34.5421C34.4989 3.92604 34.4575 3.7761 34.4195 3.66063C34.3797 3.54515 34.3279 3.42279 34.2623 3.29698C34.0878 2.94022 33.8805 2.63517 33.6439 2.3801C33.4072 2.12502 33.1464 1.93027 32.8666 1.79757C32.585 1.66314 32.2965 1.59765 32.0011 1.59765C31.647 1.59765 31.3586 1.69244 31.1357 1.88029C30.9129 2.06815 30.7471 2.36114 30.64 2.75926C30.5329 3.15738 30.4793 3.66235 30.4793 4.2759C30.4793 4.62921 30.4983 4.94288 30.5363 5.21518C30.5743 5.48749 30.6331 5.71843 30.7125 5.90629C30.792 6.09415 30.8922 6.25098 31.0148 6.37852C31.1634 6.53018 31.3465 6.64565 31.5589 6.72493C31.7731 6.80421 32.0063 6.84385 32.2585 6.84385C32.4934 6.84385 32.7197 6.81283 32.9357 6.75251C33.1516 6.69219 33.3537 6.60084 33.5437 6.48193C33.732 6.36128 33.9047 6.21307 34.0619 6.03727C34.188 5.89078 34.2916 5.74429 34.3694 5.59607C34.4471 5.44785 34.5248 5.2531 34.6043 5.01009Z" fill="black"/>
<path d="M35.4541 1.58386H41.094V3.63305H40.98C40.8763 3.27457 40.7831 3.00571 40.7002 2.8282C40.6172 2.65068 40.5119 2.48178 40.3789 2.32322C40.2199 2.13364 40.0455 1.99921 39.8589 1.91821C39.548 1.78895 39.1697 1.72519 38.7241 1.72519H37.6807V4.23971H37.9606C38.3786 4.23971 38.7102 4.06047 38.9555 3.70199C39.0816 3.51758 39.1749 3.2987 39.2353 3.04363C39.2664 2.93505 39.2941 2.77477 39.3183 2.56279H39.4513V6.03211H39.3183C39.2872 5.84597 39.2526 5.66846 39.2094 5.50473C39.168 5.33928 39.1213 5.20485 39.0695 5.10144C39.0177 4.99803 38.9503 4.89462 38.8709 4.79122C38.6429 4.51029 38.3198 4.37069 37.9001 4.37069H37.6807V6.737H38.553C38.8104 6.737 39.0436 6.71804 39.2492 6.68185C39.4547 6.64566 39.6413 6.58878 39.8054 6.51123C39.9695 6.43367 40.1249 6.33371 40.2683 6.20962C40.5171 5.99936 40.7088 5.73912 40.8453 5.42545C40.923 5.24621 41.0059 5.0032 41.0923 4.69815H41.2322V6.87488H35.4593L35.4524 6.73528H35.5958C36.2384 6.73528 36.5597 6.41127 36.5597 5.76669V2.68515C36.5597 2.35769 36.4819 2.11469 36.3247 1.95785C36.1676 1.80102 35.9257 1.72346 35.5958 1.72346H35.4524V1.58386H35.4541Z" fill="black"/>
</svg>
