<svg width="42" height="7" viewBox="0 0 42 7" fill="none" xmlns="http://www.w3.org/2000/svg">
<path d="M2.17126 0.533942L2.28739 0.66354C1.8176 0.976302 1.46745 1.3098 1.23871 1.66576C0.943109 2.12367 0.795308 2.62133 0.795308 3.16045C0.795308 3.81363 1.01349 4.41669 1.45161 4.96964C1.63988 4.81757 1.75425 4.6897 1.7912 4.58603C1.82815 4.48235 1.84751 4.19896 1.84751 3.73414V1.65712L3.87273 0C4.34428 0.183165 4.71554 0.300666 4.98475 0.354233C5.25572 0.4078 5.57243 0.435448 5.93666 0.435448H6.04575L6.12317 0.604789L5.3437 1.33572C4.82112 1.28042 4.22991 1.09208 3.57185 0.768945L3.61936 6.06862L3.79883 6.07381C4.25103 6.07381 4.66276 5.99778 5.03578 5.84572C5.4088 5.69365 5.79414 5.44655 6.19179 5.10442L6.33607 5.24093C6.04223 5.63663 5.75543 5.94594 5.4739 6.16539C5.19238 6.38484 4.85279 6.56109 4.45513 6.69242C4.05748 6.82374 3.6651 6.88941 3.27449 6.88941C2.6956 6.88941 2.14839 6.75117 1.63636 6.47642C1.12434 6.20168 0.723167 5.80597 0.434604 5.29277C0.144281 4.77956 0 4.2508 0 3.70649C0 3.03604 0.204106 2.41397 0.614076 1.84029C0.934311 1.39447 1.45337 0.957294 2.17126 0.533942ZM3.35543 0.737842L2.80293 1.20785V3.32634C2.80293 3.58899 2.78886 3.76524 2.7607 3.85164C2.72903 3.96569 2.65689 4.08837 2.54252 4.21797C2.31202 4.48062 1.99003 4.78129 1.57478 5.11997C1.82815 5.39472 2.09736 5.60553 2.38768 5.75241C2.67625 5.89928 3.01584 5.99778 3.40293 6.04616L3.35543 0.737842Z" fill="white"/>
<path d="M6.74782 6.74253H6.92201C7.25457 6.74253 7.5009 6.66304 7.66278 6.5058C7.82465 6.34682 7.90383 6.10491 7.90383 5.77832C7.93726 5.59861 7.95838 5.42927 7.96718 5.26684C7.97597 5.10614 7.97773 4.86423 7.97245 4.54283C7.96718 4.19896 7.95662 3.81708 7.93902 3.40064C7.92143 2.9842 7.90559 2.71291 7.89152 2.58849C7.87568 2.4036 7.84753 2.26364 7.80706 2.1686C7.76659 2.07356 7.70325 1.99407 7.61703 1.92668C7.46219 1.7919 7.22993 1.72624 6.92025 1.72624H6.7355V1.58627H10.142V1.72624H10.0223C9.68976 1.72624 9.44342 1.80573 9.28154 1.96297C9.11967 2.12194 9.04049 2.36386 9.04049 2.69044V4.11429H11.9472V2.69044C11.9472 2.36213 11.8681 2.11849 11.7079 1.96124C11.5478 1.804 11.3015 1.72624 10.9654 1.72624H10.8528V1.58627H14.2276V1.72624H14.0692C13.7384 1.72624 13.4939 1.80573 13.3302 1.96297C13.1683 2.12194 13.0874 2.36386 13.0874 2.69044V5.7766C13.0874 6.10145 13.1701 6.34164 13.3355 6.50234C13.5009 6.66304 13.7455 6.7408 14.071 6.7408H14.2293V6.88941H10.8528V6.7408H10.9654C11.298 6.7408 11.5443 6.66131 11.7062 6.50407C11.8681 6.3451 11.9472 6.10318 11.9472 5.7766V4.26981H9.04049V5.7766C9.04049 6.10145 9.12319 6.34164 9.28858 6.50234C9.45398 6.66304 9.69855 6.7408 10.0223 6.7408H10.142V6.88941H6.74782V6.74253Z" fill="white"/>
<path d="M17.7889 1.48087H17.9314L20.1044 6.12046C20.1748 6.26388 20.2522 6.38311 20.3384 6.47642C20.4246 6.56973 20.5214 6.63712 20.6305 6.68032C20.7396 6.72179 20.8663 6.74253 21.0141 6.74253H21.1566V6.89113H18.0211V6.74253H18.4311C18.6352 6.74253 18.783 6.71488 18.878 6.66131C18.9713 6.60602 19.0188 6.52308 19.0188 6.40903C19.0188 6.33818 18.9994 6.25178 18.9625 6.15156C18.9255 6.04961 18.8428 5.86645 18.7161 5.60034C18.7091 5.58479 18.6968 5.5606 18.681 5.52431C18.6651 5.48802 18.6493 5.45519 18.6299 5.42236L18.5402 5.22883H16.2546L16.0804 5.62453C16.0241 5.75931 15.9959 5.8941 15.9959 6.03061C15.9959 6.14638 16.0293 6.26215 16.0944 6.3762C16.1595 6.49024 16.2458 6.57664 16.3513 6.63367C16.4217 6.67341 16.4833 6.70106 16.5396 6.71488C16.5959 6.7287 16.6751 6.73734 16.7771 6.74253V6.89113H14.5777V6.74253C14.7378 6.72525 14.8645 6.6976 14.9578 6.65959C15.051 6.62157 15.1566 6.55764 15.2727 6.46951C15.5455 6.26215 15.8129 5.87163 16.0733 5.29622L17.7889 1.48087ZM17.3789 2.72327L16.3197 5.08886H18.4645L17.3789 2.72327Z" fill="white"/>
<path d="M21.6633 1.588H23.8328L27.5877 5.40681V3.12071C27.5877 2.84251 27.5402 2.59886 27.4434 2.38978C27.3466 2.18069 27.2076 2.02172 27.0246 1.91286C26.9261 1.85238 26.8275 1.80918 26.729 1.78326C26.6305 1.75734 26.4915 1.73833 26.3138 1.72624V1.58627H28.99V1.72624H28.9355C28.5466 1.72624 28.2493 1.8472 28.0469 2.09084C27.8446 2.33448 27.7407 2.68699 27.7407 3.15008V6.94297H27.6123L22.9495 2.23944V5.39126C22.9495 5.69711 22.9865 5.94248 23.0622 6.12564C23.1361 6.30881 23.2575 6.45223 23.4264 6.55591C23.5636 6.63712 23.729 6.68896 23.9243 6.71143C24.0334 6.7287 24.1865 6.74253 24.3888 6.74944V6.88941H21.5701V6.74944C21.8586 6.73389 22.0944 6.68378 22.2756 6.59911C22.4569 6.51444 22.5906 6.3883 22.6786 6.22068C22.7648 6.05307 22.8088 5.84571 22.8088 5.59861V2.60059C22.8088 2.4157 22.7665 2.25845 22.6839 2.13058C22.5994 2.00099 22.478 1.90249 22.3179 1.83337C22.1578 1.76425 21.9642 1.72969 21.7372 1.72969H21.6668V1.588H21.6633Z" fill="white"/>
<path d="M35.2487 5.0232H35.3842C35.3226 5.24784 35.254 5.43619 35.1801 5.58479C35.1044 5.7334 35.0024 5.89064 34.8704 6.05134C34.3478 6.68378 33.6475 7 32.7713 7C32.2205 7 31.705 6.87386 31.2282 6.62157C30.7513 6.36929 30.373 6.03061 30.0915 5.6038C29.81 5.17699 29.6692 4.71735 29.6692 4.22316C29.6692 3.9294 29.7238 3.63737 29.8346 3.3488C29.9455 3.06023 30.1073 2.78894 30.3202 2.53666C30.5332 2.28437 30.7795 2.06838 31.061 1.88867C31.4868 1.61565 31.9777 1.47914 32.5337 1.47914C32.7185 1.47914 32.8944 1.49469 33.0616 1.5258C33.227 1.5569 33.3854 1.60874 33.5332 1.67786C33.681 1.74698 33.834 1.83856 33.9906 1.9526C34.1666 2.07183 34.295 2.13059 34.3777 2.13059C34.5607 2.13059 34.7895 1.94397 35.0657 1.569H35.2012L35.3138 4.1212H35.1854C35.1414 3.93631 35.0991 3.78598 35.0604 3.6702C35.02 3.55443 34.9672 3.43174 34.9003 3.3056C34.7226 2.94791 34.5115 2.64206 34.2704 2.38632C34.0293 2.13059 33.7636 1.93533 33.4786 1.80227C33.1918 1.66749 32.898 1.60183 32.5971 1.60183C32.2364 1.60183 31.9425 1.69686 31.7156 1.88521C31.4886 2.07356 31.3197 2.36732 31.2106 2.76648C31.1015 3.16564 31.0469 3.67193 31.0469 4.28709C31.0469 4.64132 31.0663 4.95581 31.105 5.22883C31.1437 5.50185 31.2035 5.7334 31.2845 5.92175C31.3654 6.11009 31.4675 6.26734 31.5924 6.39521C31.7437 6.54727 31.9302 6.66304 32.1466 6.74253C32.3648 6.82202 32.6024 6.86176 32.8593 6.86176C33.0985 6.86176 33.329 6.83066 33.549 6.77018C33.7689 6.7097 33.9748 6.61812 34.1683 6.49889C34.3601 6.37793 34.5361 6.22933 34.6962 6.05307C34.8246 5.9062 34.9302 5.75932 35.0094 5.61071C35.0886 5.46211 35.1678 5.26685 35.2487 5.0232Z" fill="white"/>
<path d="M36.1144 1.58801H41.8592V3.64257H41.7431C41.6375 3.28315 41.5425 3.01359 41.4581 2.8356C41.3736 2.65762 41.2663 2.48828 41.1308 2.32931C40.9689 2.13923 40.7912 2.00445 40.6012 1.92324C40.2845 1.79364 39.8991 1.72971 39.4452 1.72971H38.3824V4.25081H38.6674C39.0933 4.25081 39.4311 4.0711 39.6809 3.71168C39.8094 3.52679 39.9044 3.30734 39.966 3.0516C39.9977 2.94274 40.0258 2.78204 40.0504 2.5695H40.1859V6.0479H40.0504C40.0188 5.86128 39.9836 5.6833 39.9396 5.51914C39.8974 5.35325 39.8499 5.21847 39.7971 5.11479C39.7443 5.01112 39.6757 4.90744 39.5947 4.80376C39.3625 4.5221 39.0334 4.38214 38.6059 4.38214H38.3824V6.75464H39.271C39.5331 6.75464 39.7707 6.73563 39.9801 6.69934C40.1894 6.66305 40.3795 6.60603 40.5466 6.52827C40.7138 6.45051 40.8721 6.35029 41.0182 6.22588C41.2716 6.01507 41.4669 5.75414 41.6059 5.43965C41.685 5.25994 41.7695 5.0163 41.8575 4.71045H42V6.89287H36.1196L36.1126 6.75291H36.2587C36.9132 6.75291 37.2405 6.42805 37.2405 5.78179V2.69218C37.2405 2.36387 37.1613 2.12023 37.0012 1.96298C36.8411 1.80574 36.5947 1.72798 36.2587 1.72798H36.1126V1.58801H36.1144Z" fill="white"/>
</svg>
